<?xml version="1.0" standalone="no"?>
<!DOCTYPE svg PUBLIC "-//W3C//DTD SVG 20010904//EN"
 "http://www.w3.org/TR/2001/REC-SVG-20010904/DTD/svg10.dtd">
<svg version="1.0" xmlns="http://www.w3.org/2000/svg"
 width="100.000000pt" height="100.000000pt" viewBox="0 0 100.000000 100.000000"
 preserveAspectRatio="xMidYMid meet">

<g transform="translate(0.000000,100.000000) scale(0.100000,-0.100000)"
fill="#000000" stroke="none">
<path d="M92 925 c-7 -14 -12 -30 -12 -35 0 -10 122 -51 215 -71 79 -18 331
-18 410 0 93 20 215 61 215 71 0 19 -24 60 -34 60 -6 0 -45 -11 -87 -25 -170
-54 -383 -58 -559 -10 -52 15 -104 29 -116 31 -15 4 -23 -1 -32 -21z"/>
<path d="M97 773 c-11 -11 -8 -48 5 -61 7 -7 42 -12 85 -12 40 0 74 -1 75 -2
1 -2 5 -136 8 -298 l5 -295 35 0 35 0 5 295 c3 162 7 296 8 298 1 1 65 2 142
2 77 0 141 -1 142 -2 1 -2 5 -136 8 -298 l5 -295 30 -3 c53 -6 55 4 55 315 l0
283 74 0 c80 0 100 11 94 52 l-3 23 -401 3 c-220 1 -403 -1 -407 -5z"/>
</g>
</svg>
