<?xml version="1.0" standalone="no"?>
<!DOCTYPE svg PUBLIC "-//W3C//DTD SVG 20010904//EN"
 "http://www.w3.org/TR/2001/REC-SVG-20010904/DTD/svg10.dtd">
<svg version="1.0" xmlns="http://www.w3.org/2000/svg"
 width="180.000000pt" height="40.000000pt" viewBox="0 0 180.000000 40.000000"
 preserveAspectRatio="xMidYMid meet">

<g transform="translate(0.000000,40.000000) scale(0.100000,-0.100000)"
fill="#000000" stroke="none">
<path d="M30 380 c0 -17 7 -20 45 -20 l45 0 0 -160 c0 -159 0 -160 23 -160 22
0 22 1 22 157 l0 158 48 3 c39 3 47 6 47 23 0 18 -8 19 -115 19 -108 0 -115
-1 -115 -20z"/>
<path d="M270 220 l0 -180 25 0 c24 0 25 2 25 70 l0 70 33 0 c29 0 35 -6 71
-70 35 -61 43 -70 68 -70 l29 0 -19 28 c-11 15 -31 46 -46 69 l-26 43 28 14
c33 17 52 54 52 102 0 76 -44 104 -165 104 l-75 0 0 -180z m168 124 c16 -11
22 -25 22 -51 0 -54 -23 -73 -87 -73 l-53 0 0 70 0 70 48 0 c27 0 57 -7 70
-16z"/>
<path d="M611 380 c-46 -29 -67 -57 -81 -107 -16 -53 -6 -121 23 -165 27 -40
98 -78 147 -78 43 0 107 29 137 61 68 74 53 222 -28 280 -48 34 -150 39 -198
9z m181 -57 c57 -58 56 -159 -4 -215 -39 -36 -103 -41 -158 -13 -54 28 -78
132 -45 196 39 74 147 91 207 32z"/>
<path d="M870 380 c0 -17 7 -20 45 -20 l45 0 0 -160 0 -160 25 0 25 0 0 160 0
160 75 0 75 0 0 -160 0 -160 25 0 25 0 0 160 0 160 45 0 c38 0 45 3 45 20 0
19 -7 20 -215 20 -208 0 -215 -1 -215 -20z"/>
<path d="M1320 220 l0 -180 95 0 c88 0 95 1 95 20 0 18 -7 20 -75 20 l-75 0 0
60 0 60 65 0 c58 0 65 2 65 20 0 18 -7 20 -65 20 l-65 0 0 60 0 60 75 0 c68 0
75 2 75 20 0 19 -7 20 -95 20 l-95 0 0 -180z"/>
<path d="M1540 220 l0 -180 25 0 c24 0 25 2 25 71 l0 70 32 -3 c28 -3 37 -12
72 -70 35 -58 45 -68 69 -68 l28 0 -19 28 c-11 15 -31 46 -46 69 l-26 43 28
14 c33 17 52 54 52 102 0 76 -44 104 -165 104 l-75 0 0 -180z m168 124 c16
-11 22 -25 22 -51 0 -54 -23 -73 -87 -73 l-53 0 0 70 0 70 48 0 c27 0 57 -7
70 -16z"/>
</g>
</svg>
